<mxfile host="app.diagrams.net" modified="2020-10-30T07:15:00.907Z" agent="5.0 (Macintosh; Intel Mac OS X 10_15_2) AppleWebKit/537.36 (KHTML, like Gecko) Chrome/86.0.4240.111 Safari/537.36" etag="Yb176mHh2dBhG31skQr0" version="13.8.6" type="github" pages="2">
  <diagram id="AjrGwykpVRG70YQmtkJv" name="类关系">
    <mxGraphModel dx="1186" dy="764" grid="1" gridSize="10" guides="1" tooltips="1" connect="1" arrows="1" fold="1" page="1" pageScale="1" pageWidth="1600" pageHeight="900" math="0" shadow="0">
      <root>
        <mxCell id="0" />
        <mxCell id="1" parent="0" />
        <mxCell id="7oa0ECpI3pxgxDUBUL56-7" value="QueryIdCachingProxyHandler" style="swimlane;fontStyle=1;align=center;verticalAlign=top;childLayout=stackLayout;horizontal=1;startSize=26;horizontalStack=0;resizeParent=1;resizeParentMax=0;resizeLast=0;collapsible=1;marginBottom=0;" parent="1" vertex="1">
          <mxGeometry x="380" y="660" width="189" height="52" as="geometry" />
        </mxCell>
        <mxCell id="7oa0ECpI3pxgxDUBUL56-8" value="+" style="text;strokeColor=none;fillColor=none;align=left;verticalAlign=top;spacingLeft=4;spacingRight=4;overflow=hidden;rotatable=0;points=[[0,0.5],[1,0.5]];portConstraint=eastwest;" parent="7oa0ECpI3pxgxDUBUL56-7" vertex="1">
          <mxGeometry y="26" width="189" height="26" as="geometry" />
        </mxCell>
        <mxCell id="7oa0ECpI3pxgxDUBUL56-11" value="Extends" style="endArrow=block;endSize=16;endFill=0;html=1;exitX=0.5;exitY=0;exitDx=0;exitDy=0;entryX=0.5;entryY=0.962;entryDx=0;entryDy=0;entryPerimeter=0;" parent="1" source="7oa0ECpI3pxgxDUBUL56-7" target="7oa0ECpI3pxgxDUBUL56-16" edge="1">
          <mxGeometry width="160" relative="1" as="geometry">
            <mxPoint x="454.5" y="650" as="sourcePoint" />
            <mxPoint x="473.55500000000006" y="621.012" as="targetPoint" />
          </mxGeometry>
        </mxCell>
        <mxCell id="7oa0ECpI3pxgxDUBUL56-12" value="ProxyHandler" style="swimlane;fontStyle=1;align=center;verticalAlign=top;childLayout=stackLayout;horizontal=1;startSize=26;horizontalStack=0;resizeParent=1;resizeParentMax=0;resizeLast=0;collapsible=1;marginBottom=0;" parent="1" vertex="1">
          <mxGeometry x="380" y="460" width="189" height="104" as="geometry" />
        </mxCell>
        <mxCell id="7oa0ECpI3pxgxDUBUL56-13" value="+ m: rewriteTarget" style="text;strokeColor=none;fillColor=none;align=left;verticalAlign=top;spacingLeft=4;spacingRight=4;overflow=hidden;rotatable=0;points=[[0,0.5],[1,0.5]];portConstraint=eastwest;" parent="7oa0ECpI3pxgxDUBUL56-12" vertex="1">
          <mxGeometry y="26" width="189" height="26" as="geometry" />
        </mxCell>
        <mxCell id="7oa0ECpI3pxgxDUBUL56-17" value="+ m: preConnectionHook" style="text;strokeColor=none;fillColor=none;align=left;verticalAlign=top;spacingLeft=4;spacingRight=4;overflow=hidden;rotatable=0;points=[[0,0.5],[1,0.5]];portConstraint=eastwest;" parent="7oa0ECpI3pxgxDUBUL56-12" vertex="1">
          <mxGeometry y="52" width="189" height="26" as="geometry" />
        </mxCell>
        <mxCell id="7oa0ECpI3pxgxDUBUL56-16" value="+ m: postConnectionHook" style="text;strokeColor=none;fillColor=none;align=left;verticalAlign=top;spacingLeft=4;spacingRight=4;overflow=hidden;rotatable=0;points=[[0,0.5],[1,0.5]];portConstraint=eastwest;" parent="7oa0ECpI3pxgxDUBUL56-12" vertex="1">
          <mxGeometry y="78" width="189" height="26" as="geometry" />
        </mxCell>
        <mxCell id="7oa0ECpI3pxgxDUBUL56-18" value="ProxyServletImpl" style="swimlane;fontStyle=1;align=center;verticalAlign=top;childLayout=stackLayout;horizontal=1;startSize=26;horizontalStack=0;resizeParent=1;resizeParentMax=0;resizeLast=0;collapsible=1;marginBottom=0;" parent="1" vertex="1">
          <mxGeometry x="380" y="270" width="189" height="104" as="geometry" />
        </mxCell>
        <mxCell id="7oa0ECpI3pxgxDUBUL56-19" value="+ m: newHttpClient" style="text;strokeColor=none;fillColor=none;align=left;verticalAlign=top;spacingLeft=4;spacingRight=4;overflow=hidden;rotatable=0;points=[[0,0.5],[1,0.5]];portConstraint=eastwest;" parent="7oa0ECpI3pxgxDUBUL56-18" vertex="1">
          <mxGeometry y="26" width="189" height="26" as="geometry" />
        </mxCell>
        <mxCell id="586wZcgzaFMr_9AE4TFZ-1" value="+ m: addProxyHeaders" style="text;strokeColor=none;fillColor=none;align=left;verticalAlign=top;spacingLeft=4;spacingRight=4;overflow=hidden;rotatable=0;points=[[0,0.5],[1,0.5]];portConstraint=eastwest;" vertex="1" parent="7oa0ECpI3pxgxDUBUL56-18">
          <mxGeometry y="52" width="189" height="26" as="geometry" />
        </mxCell>
        <mxCell id="586wZcgzaFMr_9AE4TFZ-2" value="+ m: rewriteTarget" style="text;strokeColor=none;fillColor=none;align=left;verticalAlign=top;spacingLeft=4;spacingRight=4;overflow=hidden;rotatable=0;points=[[0,0.5],[1,0.5]];portConstraint=eastwest;" vertex="1" parent="7oa0ECpI3pxgxDUBUL56-18">
          <mxGeometry y="78" width="189" height="26" as="geometry" />
        </mxCell>
        <mxCell id="7oa0ECpI3pxgxDUBUL56-22" value="Use" style="endArrow=open;endSize=12;dashed=1;html=1;exitX=0.5;exitY=0.962;exitDx=0;exitDy=0;exitPerimeter=0;" parent="1" source="586wZcgzaFMr_9AE4TFZ-2" target="7oa0ECpI3pxgxDUBUL56-12" edge="1">
          <mxGeometry width="160" relative="1" as="geometry">
            <mxPoint x="474.5" y="410" as="sourcePoint" />
            <mxPoint x="1024.5" y="400" as="targetPoint" />
          </mxGeometry>
        </mxCell>
        <mxCell id="7oa0ECpI3pxgxDUBUL56-23" value="ProxyServlet" style="swimlane;fontStyle=1;align=center;verticalAlign=top;childLayout=stackLayout;horizontal=1;startSize=26;horizontalStack=0;resizeParent=1;resizeParentMax=0;resizeLast=0;collapsible=1;marginBottom=0;" parent="1" vertex="1">
          <mxGeometry x="380" y="60" width="189" height="104" as="geometry" />
        </mxCell>
        <mxCell id="7oa0ECpI3pxgxDUBUL56-24" value="+ m: rewriteTarget" style="text;strokeColor=none;fillColor=none;align=left;verticalAlign=top;spacingLeft=4;spacingRight=4;overflow=hidden;rotatable=0;points=[[0,0.5],[1,0.5]];portConstraint=eastwest;" parent="7oa0ECpI3pxgxDUBUL56-23" vertex="1">
          <mxGeometry y="26" width="189" height="26" as="geometry" />
        </mxCell>
        <mxCell id="7oa0ECpI3pxgxDUBUL56-25" value="+ m: preConnectionHook" style="text;strokeColor=none;fillColor=none;align=left;verticalAlign=top;spacingLeft=4;spacingRight=4;overflow=hidden;rotatable=0;points=[[0,0.5],[1,0.5]];portConstraint=eastwest;" parent="7oa0ECpI3pxgxDUBUL56-23" vertex="1">
          <mxGeometry y="52" width="189" height="26" as="geometry" />
        </mxCell>
        <mxCell id="7oa0ECpI3pxgxDUBUL56-26" value="+ m: postConnectionHook" style="text;strokeColor=none;fillColor=none;align=left;verticalAlign=top;spacingLeft=4;spacingRight=4;overflow=hidden;rotatable=0;points=[[0,0.5],[1,0.5]];portConstraint=eastwest;" parent="7oa0ECpI3pxgxDUBUL56-23" vertex="1">
          <mxGeometry y="78" width="189" height="26" as="geometry" />
        </mxCell>
        <mxCell id="7oa0ECpI3pxgxDUBUL56-27" value="Extends" style="endArrow=block;endSize=16;endFill=0;html=1;entryX=0.5;entryY=1;entryDx=0;entryDy=0;entryPerimeter=0;exitX=0.5;exitY=0;exitDx=0;exitDy=0;" parent="1" edge="1" source="7oa0ECpI3pxgxDUBUL56-18">
          <mxGeometry width="160" relative="1" as="geometry">
            <mxPoint x="474.5" y="250" as="sourcePoint" />
            <mxPoint x="474.5" y="164" as="targetPoint" />
          </mxGeometry>
        </mxCell>
        <mxCell id="586wZcgzaFMr_9AE4TFZ-3" value="" style="endArrow=none;dashed=1;html=1;dashPattern=1 3;strokeWidth=2;" edge="1" parent="1">
          <mxGeometry width="50" height="50" relative="1" as="geometry">
            <mxPoint x="216.75" y="240" as="sourcePoint" />
            <mxPoint x="732.25" y="240" as="targetPoint" />
          </mxGeometry>
        </mxCell>
        <mxCell id="586wZcgzaFMr_9AE4TFZ-4" value="Jetty" style="text;html=1;strokeColor=none;fillColor=none;align=center;verticalAlign=middle;whiteSpace=wrap;rounded=0;fontSize=17;" vertex="1" parent="1">
          <mxGeometry x="660" y="180" width="100" height="46" as="geometry" />
        </mxCell>
        <mxCell id="586wZcgzaFMr_9AE4TFZ-5" value="Presto Gateway" style="text;html=1;strokeColor=none;fillColor=none;align=center;verticalAlign=middle;whiteSpace=wrap;rounded=0;fontSize=17;" vertex="1" parent="1">
          <mxGeometry x="660" y="260" width="100" height="46" as="geometry" />
        </mxCell>
      </root>
    </mxGraphModel>
  </diagram>
  <diagram id="D9EvgWUIgAyfeNY0NYcV" name="路由流程">
    <mxGraphModel dx="1426" dy="794" grid="1" gridSize="10" guides="1" tooltips="1" connect="1" arrows="1" fold="1" page="1" pageScale="1" pageWidth="1920" pageHeight="1200" math="0" shadow="0">
      <root>
        <mxCell id="2auFynWofHXx4H107HdV-0" />
        <mxCell id="2auFynWofHXx4H107HdV-1" parent="2auFynWofHXx4H107HdV-0" />
        <mxCell id="2auFynWofHXx4H107HdV-2" value="请求开始" style="rounded=1;whiteSpace=wrap;html=1;fontSize=13;" vertex="1" parent="2auFynWofHXx4H107HdV-1">
          <mxGeometry x="560" y="70" width="120" height="60" as="geometry" />
        </mxCell>
        <mxCell id="2auFynWofHXx4H107HdV-3" value="" style="endArrow=classic;html=1;fontSize=17;entryX=0.5;entryY=0;entryDx=0;entryDy=0;exitX=0.5;exitY=1;exitDx=0;exitDy=0;" edge="1" parent="2auFynWofHXx4H107HdV-1" source="2auFynWofHXx4H107HdV-2" target="2auFynWofHXx4H107HdV-5">
          <mxGeometry width="50" height="50" relative="1" as="geometry">
            <mxPoint x="620" y="160" as="sourcePoint" />
            <mxPoint x="620" y="220" as="targetPoint" />
          </mxGeometry>
        </mxCell>
        <mxCell id="2auFynWofHXx4H107HdV-4" value="请求开始" style="rounded=1;whiteSpace=wrap;html=1;fontSize=17;" vertex="1" parent="2auFynWofHXx4H107HdV-1">
          <mxGeometry x="180" y="100" width="120" height="60" as="geometry" />
        </mxCell>
        <mxCell id="2auFynWofHXx4H107HdV-5" value="请求接口是否需要转发？" style="rhombus;whiteSpace=wrap;html=1;fontSize=13;" vertex="1" parent="2auFynWofHXx4H107HdV-1">
          <mxGeometry x="520" y="180" width="200" height="80" as="geometry" />
        </mxCell>
        <mxCell id="2auFynWofHXx4H107HdV-7" value="" style="endArrow=classic;html=1;fontSize=17;exitX=0.5;exitY=1;exitDx=0;exitDy=0;entryX=0.5;entryY=0;entryDx=0;entryDy=0;" edge="1" parent="2auFynWofHXx4H107HdV-1" source="2auFynWofHXx4H107HdV-5" target="2auFynWofHXx4H107HdV-14">
          <mxGeometry width="50" height="50" relative="1" as="geometry">
            <mxPoint x="630" y="140" as="sourcePoint" />
            <mxPoint x="620" y="320" as="targetPoint" />
          </mxGeometry>
        </mxCell>
        <mxCell id="2auFynWofHXx4H107HdV-8" value="Y" style="text;html=1;strokeColor=none;fillColor=none;align=center;verticalAlign=middle;whiteSpace=wrap;rounded=0;fontSize=13;" vertex="1" parent="2auFynWofHXx4H107HdV-1">
          <mxGeometry x="580" y="280" width="40" height="20" as="geometry" />
        </mxCell>
        <mxCell id="2auFynWofHXx4H107HdV-10" value="" style="endArrow=classic;html=1;fontSize=17;exitX=1;exitY=0.5;exitDx=0;exitDy=0;" edge="1" parent="2auFynWofHXx4H107HdV-1" source="2auFynWofHXx4H107HdV-5">
          <mxGeometry width="50" height="50" relative="1" as="geometry">
            <mxPoint x="630" y="140" as="sourcePoint" />
            <mxPoint x="790" y="220" as="targetPoint" />
          </mxGeometry>
        </mxCell>
        <mxCell id="2auFynWofHXx4H107HdV-11" value="N" style="text;html=1;strokeColor=none;fillColor=none;align=center;verticalAlign=middle;whiteSpace=wrap;rounded=0;fontSize=13;" vertex="1" parent="2auFynWofHXx4H107HdV-1">
          <mxGeometry x="740" y="200" width="40" height="20" as="geometry" />
        </mxCell>
        <mxCell id="2auFynWofHXx4H107HdV-12" value="gateway 内部 api" style="rounded=1;whiteSpace=wrap;html=1;fontSize=13;" vertex="1" parent="2auFynWofHXx4H107HdV-1">
          <mxGeometry x="790" y="190" width="120" height="60" as="geometry" />
        </mxCell>
        <mxCell id="2auFynWofHXx4H107HdV-14" value="请求是否有 query id ？" style="rhombus;whiteSpace=wrap;html=1;fontSize=13;" vertex="1" parent="2auFynWofHXx4H107HdV-1">
          <mxGeometry x="520" y="320" width="200" height="80" as="geometry" />
        </mxCell>
        <mxCell id="2auFynWofHXx4H107HdV-15" value="" style="endArrow=classic;html=1;fontSize=17;exitX=0.5;exitY=1;exitDx=0;exitDy=0;entryX=0.5;entryY=0;entryDx=0;entryDy=0;" edge="1" parent="2auFynWofHXx4H107HdV-1" source="2auFynWofHXx4H107HdV-14" target="2auFynWofHXx4H107HdV-29">
          <mxGeometry width="50" height="50" relative="1" as="geometry">
            <mxPoint x="630" y="270" as="sourcePoint" />
            <mxPoint x="620" y="460" as="targetPoint" />
          </mxGeometry>
        </mxCell>
        <mxCell id="2auFynWofHXx4H107HdV-16" value="Y" style="text;html=1;strokeColor=none;fillColor=none;align=center;verticalAlign=middle;whiteSpace=wrap;rounded=0;fontSize=13;" vertex="1" parent="2auFynWofHXx4H107HdV-1">
          <mxGeometry x="580" y="420" width="40" height="20" as="geometry" />
        </mxCell>
        <mxCell id="2auFynWofHXx4H107HdV-17" value="" style="endArrow=classic;html=1;fontSize=17;exitX=1;exitY=0.5;exitDx=0;exitDy=0;entryX=0;entryY=0.5;entryDx=0;entryDy=0;" edge="1" parent="2auFynWofHXx4H107HdV-1" source="2auFynWofHXx4H107HdV-14" target="2auFynWofHXx4H107HdV-20">
          <mxGeometry width="50" height="50" relative="1" as="geometry">
            <mxPoint x="730" y="230" as="sourcePoint" />
            <mxPoint x="810" y="360" as="targetPoint" />
          </mxGeometry>
        </mxCell>
        <mxCell id="2auFynWofHXx4H107HdV-18" value="N" style="text;html=1;strokeColor=none;fillColor=none;align=center;verticalAlign=middle;whiteSpace=wrap;rounded=0;fontSize=13;" vertex="1" parent="2auFynWofHXx4H107HdV-1">
          <mxGeometry x="740" y="340" width="40" height="20" as="geometry" />
        </mxCell>
        <mxCell id="2auFynWofHXx4H107HdV-20" value="http 头是否有 route group？" style="rhombus;whiteSpace=wrap;html=1;fontSize=13;" vertex="1" parent="2auFynWofHXx4H107HdV-1">
          <mxGeometry x="800" y="320" width="200" height="80" as="geometry" />
        </mxCell>
        <mxCell id="2auFynWofHXx4H107HdV-22" value="" style="endArrow=classic;html=1;fontSize=17;exitX=0.5;exitY=1;exitDx=0;exitDy=0;entryX=0.5;entryY=0;entryDx=0;entryDy=0;" edge="1" parent="2auFynWofHXx4H107HdV-1" source="2auFynWofHXx4H107HdV-20" target="2auFynWofHXx4H107HdV-24">
          <mxGeometry width="50" height="50" relative="1" as="geometry">
            <mxPoint x="910" y="480" as="sourcePoint" />
            <mxPoint x="900" y="460" as="targetPoint" />
          </mxGeometry>
        </mxCell>
        <mxCell id="2auFynWofHXx4H107HdV-23" value="Y" style="text;html=1;strokeColor=none;fillColor=none;align=center;verticalAlign=middle;whiteSpace=wrap;rounded=0;fontSize=13;" vertex="1" parent="2auFynWofHXx4H107HdV-1">
          <mxGeometry x="870" y="420" width="40" height="20" as="geometry" />
        </mxCell>
        <mxCell id="2auFynWofHXx4H107HdV-24" value="从组内随机选择&lt;br&gt;一个集群" style="rounded=1;whiteSpace=wrap;html=1;fontSize=13;" vertex="1" parent="2auFynWofHXx4H107HdV-1">
          <mxGeometry x="840" y="480" width="120" height="60" as="geometry" />
        </mxCell>
        <mxCell id="2auFynWofHXx4H107HdV-25" value="" style="endArrow=classic;html=1;fontSize=17;exitX=1;exitY=0.5;exitDx=0;exitDy=0;entryX=0;entryY=0.5;entryDx=0;entryDy=0;" edge="1" parent="2auFynWofHXx4H107HdV-1" source="2auFynWofHXx4H107HdV-20" target="2auFynWofHXx4H107HdV-27">
          <mxGeometry width="50" height="50" relative="1" as="geometry">
            <mxPoint x="730" y="370" as="sourcePoint" />
            <mxPoint x="1070" y="360" as="targetPoint" />
          </mxGeometry>
        </mxCell>
        <mxCell id="2auFynWofHXx4H107HdV-26" value="N" style="text;html=1;strokeColor=none;fillColor=none;align=center;verticalAlign=middle;whiteSpace=wrap;rounded=0;fontSize=13;" vertex="1" parent="2auFynWofHXx4H107HdV-1">
          <mxGeometry x="1010" y="340" width="40" height="20" as="geometry" />
        </mxCell>
        <mxCell id="2auFynWofHXx4H107HdV-27" value="默认从 adhoc 组中随机选择一个集群" style="rounded=1;whiteSpace=wrap;html=1;fontSize=13;" vertex="1" parent="2auFynWofHXx4H107HdV-1">
          <mxGeometry x="1060" y="330" width="120" height="60" as="geometry" />
        </mxCell>
        <mxCell id="2auFynWofHXx4H107HdV-29" value="根据 query id 查询本地缓存" style="rhombus;whiteSpace=wrap;html=1;fontSize=13;" vertex="1" parent="2auFynWofHXx4H107HdV-1">
          <mxGeometry x="520" y="460" width="200" height="80" as="geometry" />
        </mxCell>
        <mxCell id="2auFynWofHXx4H107HdV-30" value="" style="endArrow=classic;html=1;fontSize=17;exitX=0.5;exitY=1;exitDx=0;exitDy=0;entryX=0.5;entryY=0;entryDx=0;entryDy=0;" edge="1" parent="2auFynWofHXx4H107HdV-1" source="2auFynWofHXx4H107HdV-29" target="2auFynWofHXx4H107HdV-34">
          <mxGeometry width="50" height="50" relative="1" as="geometry">
            <mxPoint x="630" y="410" as="sourcePoint" />
            <mxPoint x="620" y="590" as="targetPoint" />
          </mxGeometry>
        </mxCell>
        <mxCell id="2auFynWofHXx4H107HdV-31" value="N" style="text;html=1;strokeColor=none;fillColor=none;align=center;verticalAlign=middle;whiteSpace=wrap;rounded=0;fontSize=13;" vertex="1" parent="2auFynWofHXx4H107HdV-1">
          <mxGeometry x="580" y="550" width="40" height="20" as="geometry" />
        </mxCell>
        <mxCell id="2auFynWofHXx4H107HdV-32" value="Y" style="text;html=1;strokeColor=none;fillColor=none;align=center;verticalAlign=middle;whiteSpace=wrap;rounded=0;fontSize=13;" vertex="1" parent="2auFynWofHXx4H107HdV-1">
          <mxGeometry x="730" y="470" width="40" height="20" as="geometry" />
        </mxCell>
        <mxCell id="2auFynWofHXx4H107HdV-33" value="" style="endArrow=classic;html=1;fontSize=17;exitX=1;exitY=0.5;exitDx=0;exitDy=0;entryX=0;entryY=0.5;entryDx=0;entryDy=0;" edge="1" parent="2auFynWofHXx4H107HdV-1" source="2auFynWofHXx4H107HdV-29" target="2auFynWofHXx4H107HdV-50">
          <mxGeometry width="50" height="50" relative="1" as="geometry">
            <mxPoint x="630" y="410" as="sourcePoint" />
            <mxPoint x="790" y="950" as="targetPoint" />
            <Array as="points">
              <mxPoint x="790" y="500" />
              <mxPoint x="790" y="850" />
              <mxPoint x="790" y="950" />
            </Array>
          </mxGeometry>
        </mxCell>
        <mxCell id="2auFynWofHXx4H107HdV-34" value="查询数据库" style="rhombus;whiteSpace=wrap;html=1;fontSize=13;" vertex="1" parent="2auFynWofHXx4H107HdV-1">
          <mxGeometry x="520" y="580" width="200" height="80" as="geometry" />
        </mxCell>
        <mxCell id="2auFynWofHXx4H107HdV-36" value="" style="endArrow=classic;html=1;fontSize=17;exitX=1;exitY=0.5;exitDx=0;exitDy=0;" edge="1" parent="2auFynWofHXx4H107HdV-1" source="2auFynWofHXx4H107HdV-34">
          <mxGeometry width="50" height="50" relative="1" as="geometry">
            <mxPoint x="730" y="230" as="sourcePoint" />
            <mxPoint x="790" y="620" as="targetPoint" />
          </mxGeometry>
        </mxCell>
        <mxCell id="2auFynWofHXx4H107HdV-37" value="Y" style="text;html=1;strokeColor=none;fillColor=none;align=center;verticalAlign=middle;whiteSpace=wrap;rounded=0;fontSize=13;" vertex="1" parent="2auFynWofHXx4H107HdV-1">
          <mxGeometry x="730" y="600" width="40" height="20" as="geometry" />
        </mxCell>
        <mxCell id="2auFynWofHXx4H107HdV-40" value="" style="endArrow=classic;html=1;fontSize=17;exitX=0.5;exitY=1;exitDx=0;exitDy=0;entryX=0.5;entryY=0;entryDx=0;entryDy=0;" edge="1" parent="2auFynWofHXx4H107HdV-1" source="2auFynWofHXx4H107HdV-34" target="2auFynWofHXx4H107HdV-42">
          <mxGeometry width="50" height="50" relative="1" as="geometry">
            <mxPoint x="630" y="410" as="sourcePoint" />
            <mxPoint x="620" y="710" as="targetPoint" />
          </mxGeometry>
        </mxCell>
        <mxCell id="2auFynWofHXx4H107HdV-41" value="N" style="text;html=1;strokeColor=none;fillColor=none;align=center;verticalAlign=middle;whiteSpace=wrap;rounded=0;fontSize=13;" vertex="1" parent="2auFynWofHXx4H107HdV-1">
          <mxGeometry x="580" y="670" width="40" height="20" as="geometry" />
        </mxCell>
        <mxCell id="2auFynWofHXx4H107HdV-42" value="遍历所有可用集群，&lt;br&gt;请求主节点查询" style="rhombus;whiteSpace=wrap;html=1;fontSize=13;" vertex="1" parent="2auFynWofHXx4H107HdV-1">
          <mxGeometry x="520" y="700" width="200" height="80" as="geometry" />
        </mxCell>
        <mxCell id="2auFynWofHXx4H107HdV-44" value="" style="endArrow=classic;html=1;fontSize=17;exitX=1;exitY=0.5;exitDx=0;exitDy=0;" edge="1" parent="2auFynWofHXx4H107HdV-1" source="2auFynWofHXx4H107HdV-42">
          <mxGeometry width="50" height="50" relative="1" as="geometry">
            <mxPoint x="730" y="630" as="sourcePoint" />
            <mxPoint x="790" y="740" as="targetPoint" />
          </mxGeometry>
        </mxCell>
        <mxCell id="2auFynWofHXx4H107HdV-45" value="Y" style="text;html=1;strokeColor=none;fillColor=none;align=center;verticalAlign=middle;whiteSpace=wrap;rounded=0;fontSize=13;" vertex="1" parent="2auFynWofHXx4H107HdV-1">
          <mxGeometry x="730" y="720" width="40" height="20" as="geometry" />
        </mxCell>
        <mxCell id="2auFynWofHXx4H107HdV-47" value="" style="endArrow=classic;html=1;fontSize=17;exitX=0.5;exitY=1;exitDx=0;exitDy=0;entryX=0.5;entryY=0;entryDx=0;entryDy=0;" edge="1" parent="2auFynWofHXx4H107HdV-1" source="2auFynWofHXx4H107HdV-42" target="2auFynWofHXx4H107HdV-49">
          <mxGeometry width="50" height="50" relative="1" as="geometry">
            <mxPoint x="630" y="410" as="sourcePoint" />
            <mxPoint x="620" y="830" as="targetPoint" />
          </mxGeometry>
        </mxCell>
        <mxCell id="2auFynWofHXx4H107HdV-48" value="N" style="text;html=1;strokeColor=none;fillColor=none;align=center;verticalAlign=middle;whiteSpace=wrap;rounded=0;fontSize=13;" vertex="1" parent="2auFynWofHXx4H107HdV-1">
          <mxGeometry x="580" y="790" width="40" height="20" as="geometry" />
        </mxCell>
        <mxCell id="2auFynWofHXx4H107HdV-49" value="默认使用&lt;br&gt;第一个可用集群" style="rounded=1;whiteSpace=wrap;html=1;fontSize=13;" vertex="1" parent="2auFynWofHXx4H107HdV-1">
          <mxGeometry x="560" y="840" width="120" height="60" as="geometry" />
        </mxCell>
        <mxCell id="2auFynWofHXx4H107HdV-50" value="结束" style="rounded=1;whiteSpace=wrap;html=1;fontSize=13;" vertex="1" parent="2auFynWofHXx4H107HdV-1">
          <mxGeometry x="840" y="920" width="120" height="60" as="geometry" />
        </mxCell>
        <mxCell id="2auFynWofHXx4H107HdV-51" value="" style="endArrow=classic;html=1;fontSize=17;exitX=0.5;exitY=1;exitDx=0;exitDy=0;entryX=0;entryY=0.5;entryDx=0;entryDy=0;" edge="1" parent="2auFynWofHXx4H107HdV-1" source="2auFynWofHXx4H107HdV-49" target="2auFynWofHXx4H107HdV-50">
          <mxGeometry width="50" height="50" relative="1" as="geometry">
            <mxPoint x="630" y="410" as="sourcePoint" />
            <mxPoint x="790" y="950" as="targetPoint" />
            <Array as="points">
              <mxPoint x="620" y="950" />
            </Array>
          </mxGeometry>
        </mxCell>
        <mxCell id="2auFynWofHXx4H107HdV-52" value="" style="endArrow=classic;html=1;fontSize=13;exitX=0.5;exitY=1;exitDx=0;exitDy=0;entryX=0.5;entryY=0;entryDx=0;entryDy=0;" edge="1" parent="2auFynWofHXx4H107HdV-1" source="2auFynWofHXx4H107HdV-24" target="2auFynWofHXx4H107HdV-50">
          <mxGeometry width="50" height="50" relative="1" as="geometry">
            <mxPoint x="1000" y="690" as="sourcePoint" />
            <mxPoint x="1050" y="640" as="targetPoint" />
          </mxGeometry>
        </mxCell>
        <mxCell id="2auFynWofHXx4H107HdV-53" value="" style="endArrow=classic;html=1;fontSize=13;exitX=0.5;exitY=1;exitDx=0;exitDy=0;entryX=1;entryY=0.5;entryDx=0;entryDy=0;" edge="1" parent="2auFynWofHXx4H107HdV-1" source="2auFynWofHXx4H107HdV-27" target="2auFynWofHXx4H107HdV-50">
          <mxGeometry width="50" height="50" relative="1" as="geometry">
            <mxPoint x="910" y="550" as="sourcePoint" />
            <mxPoint x="1110" y="960" as="targetPoint" />
            <Array as="points">
              <mxPoint x="1120" y="950" />
            </Array>
          </mxGeometry>
        </mxCell>
      </root>
    </mxGraphModel>
  </diagram>
</mxfile>
